<svg xmlns="http://www.w3.org/2000/svg" width="247" height="240" viewBox="0 0 247 240" fill="none"><path fill-rule="evenodd" clip-rule="evenodd" d="M21.0351 117.432C84.5515 108.867 116.55 151.28 121.963 189.308C127.855 231.104 111.548 250.015 72.6981 232.543C29.8742 213.22 0 170.123 0 120.036C0 67.2083 33.2316 22.0545 79.961 4.51386C112.507 -7.7509 123.47 5.54168 105.724 37.5397C90.924 64.1932 57.076 97.5619 20.967 117.501L21.0351 117.432Z" fill="#1B1AFF"></path><path fill-rule="evenodd" clip-rule="evenodd" d="M225.829 122.568C162.313 131.133 130.315 88.7204 124.902 50.6928C119.01 8.89674 135.317 -10.0143 174.167 7.45788C216.991 26.78 246.865 69.8778 246.865 119.965C246.865 172.861 213.633 217.945 166.904 235.486C134.358 247.751 123.395 234.458 141.141 202.46C155.941 175.807 189.789 142.439 225.898 122.5L225.829 122.568Z" fill="#1B1AFF"></path></svg>