<svg xmlns="http://www.w3.org/2000/svg" width="42" height="42" viewBox="0 0 42 42" fill="none"><path d="M21 24.797C17.2725 24.797 14.2275 21.7695 14.2275 18.0245C14.2275 14.2795 17.2725 11.2695 21 11.2695C24.7275 11.2695 27.7725 14.297 27.7725 18.042C27.7725 21.787 24.7275 24.797 21 24.797ZM21 13.8945C18.725 13.8945 16.8525 15.7495 16.8525 18.042C16.8525 20.3345 18.7075 22.1895 21 22.1895C23.2925 22.1895 25.1475 20.3345 25.1475 18.042C25.1475 15.7495 23.275 13.8945 21 13.8945Z" fill="#4353ff"></path><path d="M20.9999 39.83C18.4099 39.83 15.8024 38.85 13.7724 36.9075C8.60994 31.9375 2.90494 24.01 5.05744 14.5775C6.99994 6.02 14.4724 2.1875 20.9999 2.1875C20.9999 2.1875 20.9999 2.1875 21.0174 2.1875C27.5449 2.1875 35.0174 6.02 36.9599 14.595C39.0949 24.0275 33.3899 31.9375 28.2274 36.9075C26.1974 38.85 23.5899 39.83 20.9999 39.83ZM20.9999 4.8125C15.9074 4.8125 9.36244 7.525 7.62994 15.155C5.73994 23.3975 10.9199 30.5025 15.6099 35C18.6374 37.9225 23.3799 37.9225 26.4074 35C31.0799 30.5025 36.2599 23.3975 34.4049 15.155C32.6549 7.525 26.0924 4.8125 20.9999 4.8125Z" fill="#4353ff"></path></svg>